<?xml version="1.0" standalone="no"?>
<!DOCTYPE svg PUBLIC "-//W3C//DTD SVG 20010904//EN"
 "http://www.w3.org/TR/2001/REC-SVG-20010904/DTD/svg10.dtd">
<svg version="1.0" xmlns="http://www.w3.org/2000/svg"
 width="512.000000pt" height="512.000000pt" viewBox="0 0 512.000000 512.000000"
 preserveAspectRatio="xMidYMid meet">

<g transform="translate(0.000000,512.000000) scale(0.100000,-0.100000)"
fill="#000000" stroke="none">
<path d="M2395 5044 c-226 -34 -396 -100 -595 -232 -222 -147 -362 -307 -483
-554 -83 -168 -114 -313 -124 -579 -7 -174 9 -300 53 -438 37 -112 134 -307
190 -381 28 -36 60 -79 72 -97 l23 -32 -49 -25 c-26 -13 -84 -51 -127 -83 -44
-32 -190 -135 -325 -227 -263 -181 -294 -205 -317 -250 -37 -71 -8 -108 287
-363 246 -212 325 -296 379 -401 27 -52 26 -61 -4 -162 -21 -70 -25 -104 -25
-212 0 -81 6 -156 16 -201 18 -83 74 -205 133 -292 56 -82 54 -107 -9 -187
-114 -144 -129 -181 -89 -232 44 -56 45 -56 576 -56 480 0 488 0 541 22 49 21
56 21 100 7 30 -9 90 -14 162 -14 166 0 929 25 969 31 47 7 91 53 91 95 0 45
-38 105 -104 165 -38 35 -56 59 -56 76 0 13 29 63 68 117 88 118 105 169 110
326 3 93 -1 142 -16 215 l-20 95 34 37 c19 21 34 44 34 52 0 7 21 44 46 81 73
106 79 126 64 220 -11 76 -11 85 14 170 25 90 107 334 165 495 55 152 44 183
-115 345 -60 61 -137 143 -172 182 -43 50 -78 79 -112 95 l-49 23 43 80 c67
123 135 286 164 393 23 89 26 114 26 287 0 158 -4 207 -22 293 -33 149 -68
254 -123 365 -70 140 -140 238 -250 348 -191 190 -434 320 -719 384 -73 16
-385 29 -455 19z m371 -209 c552 -97 983 -588 984 -1124 1 -635 -520 -1180
-1130 -1181 -63 0 -152 5 -198 12 -72 10 -88 9 -117 -5 -19 -9 -41 -29 -48
-44 -8 -15 -49 -131 -92 -258 -72 -217 -170 -471 -184 -479 -6 -4 -165 65
-176 76 -7 7 50 175 115 338 31 80 63 163 70 185 7 22 28 77 46 122 52 126 47
152 -44 210 -123 79 -220 161 -287 244 -145 179 -233 369 -270 583 -79 462
170 961 600 1201 84 48 234 101 333 119 105 19 290 19 398 1z m838 -3130 c120
-70 158 -178 85 -239 -46 -39 -200 -77 -249 -61 -32 10 -60 79 -60 151 0 88 9
120 42 156 27 29 32 30 83 25 32 -3 72 -16 99 -32z m-1893 -51 c114 -34 296
-147 286 -177 -11 -36 -237 -48 -324 -17 -94 33 -155 107 -134 163 18 48 79
58 172 31z m1604 -355 c10 -10 37 -26 61 -35 37 -14 56 -15 117 -7 39 6 73 10
74 9 1 -1 -2 -46 -7 -101 -5 -55 -9 -143 -10 -196 0 -82 -4 -102 -26 -147 -31
-63 -96 -123 -232 -214 -212 -142 -236 -136 -446 115 -121 146 -156 203 -158
258 -1 60 22 233 38 277 21 57 46 72 119 72 59 0 134 17 265 59 36 11 83 24
105 29 l40 8 22 -54 c12 -30 29 -62 38 -73z m-990 12 c87 -39 159 -139 192
-264 19 -76 13 -209 -14 -280 -41 -110 -143 -201 -268 -240 -103 -31 -260 -31
-332 2 -84 37 -177 153 -253 314 -53 109 -69 179 -77 321 -6 113 -5 118 13
113 10 -3 63 -13 117 -23 138 -24 222 -16 367 35 130 45 193 51 255 22z"/>
<path d="M3030 4369 c-103 -12 -222 -73 -274 -142 -98 -129 -112 -327 -35
-480 26 -49 93 -123 140 -153 145 -91 363 -63 496 65 65 63 104 153 110 254
18 282 -178 486 -437 456z m145 -143 c28 -12 67 -42 89 -66 144 -160 111 -390
-67 -465 l-37 -15 0 36 c0 56 -20 111 -54 151 -27 30 -40 36 -82 40 -69 7
-116 -15 -156 -71 -17 -25 -35 -46 -39 -46 -18 0 -54 118 -53 172 4 196 227
345 399 264z"/>
<path d="M1985 4326 c-126 -30 -229 -114 -286 -231 -32 -67 -34 -75 -34 -180
0 -98 3 -116 27 -167 15 -32 48 -80 73 -107 104 -111 236 -150 400 -117 99 19
157 49 210 108 59 65 87 137 92 237 17 304 -213 523 -482 457z m152 -120 c90
-24 143 -65 182 -142 45 -86 46 -221 2 -275 l-18 -22 -23 47 c-29 62 -84 98
-153 103 -44 4 -59 0 -98 -25 -63 -41 -83 -85 -77 -173 l5 -68 -28 15 c-95 49
-140 123 -147 240 -4 72 -1 89 20 136 40 86 120 151 208 169 54 10 71 10 127
-5z"/>
</g>
</svg>
