<?xml version="1.0" standalone="no"?>
<!DOCTYPE svg PUBLIC "-//W3C//DTD SVG 20010904//EN"
 "http://www.w3.org/TR/2001/REC-SVG-20010904/DTD/svg10.dtd">
<svg version="1.0" xmlns="http://www.w3.org/2000/svg"
 width="512.000000pt" height="512.000000pt" viewBox="0 0 512.000000 512.000000"
 preserveAspectRatio="xMidYMid meet">

<g transform="translate(0.000000,512.000000) scale(0.100000,-0.100000)"
fill="#000000" stroke="none">
<path d="M2351 5109 c-498 -41 -968 -225 -1371 -538 -104 -80 -335 -309 -416
-411 -294 -373 -476 -800 -540 -1271 -23 -168 -23 -490 0 -659 64 -471 245
-896 541 -1271 80 -101 312 -331 415 -411 302 -233 646 -397 1015 -482 346
-79 765 -81 1109 -5 383 85 764 268 1062 509 512 416 840 1002 930 1660 23
169 23 491 0 660 -62 457 -225 848 -510 1230 -85 114 -328 360 -446 451 -518
401 -1148 590 -1789 538z m838 -848 c-8 -10 -54 -67 -102 -127 -107 -133 -199
-262 -246 -346 l-36 -63 72 75 c130 138 285 233 508 316 11 4 -63 -78 -166
-182 -237 -242 -352 -380 -518 -619 l-62 -90 68 -10 68 -10 -3 -80 c-3 -71 0
-87 27 -143 40 -83 108 -148 229 -217 427 -248 606 -484 652 -860 47 -380
-164 -771 -509 -945 -179 -89 -347 -124 -606 -124 -326 0 -528 55 -733 202
-244 173 -376 410 -398 712 -17 244 58 479 208 654 112 130 170 178 434 353
99 67 192 135 207 152 30 36 57 117 57 170 0 55 -26 153 -60 228 -50 111 -29
119 92 38 45 -30 85 -52 90 -49 4 3 8 18 8 34 0 43 53 244 95 355 44 118 147
334 152 318 2 -6 -12 -73 -32 -148 -19 -76 -35 -140 -35 -144 0 -3 19 23 42
59 90 142 272 334 428 452 83 63 89 66 69 39z"/>
<path d="M2333 3307 c3 -6 20 -46 38 -87 30 -67 33 -85 34 -170 0 -92 -1 -98
-35 -154 -45 -75 -94 -118 -265 -231 -238 -158 -396 -303 -477 -436 -110 -182
-137 -479 -63 -691 86 -247 297 -463 544 -557 28 -10 51 -18 51 -16 0 2 -22
17 -49 34 -77 50 -229 248 -304 396 -37 75 -83 211 -96 287 -15 87 3 168 64
293 76 156 175 258 385 395 182 119 186 123 224 203 19 39 46 112 61 160 15
49 29 87 31 84 6 -6 -21 -129 -44 -204 -37 -119 -56 -140 -234 -263 -218 -151
-318 -251 -382 -381 -25 -51 -53 -122 -62 -157 -14 -58 -14 -70 1 -145 39
-193 164 -420 324 -590 70 -74 101 -93 200 -126 89 -29 97 -26 24 10 -79 40
-181 124 -232 192 -101 133 -149 330 -117 471 31 133 118 252 241 331 153 98
169 111 207 169 21 33 48 86 59 118 27 74 36 68 14 -8 -36 -123 -79 -180 -200
-259 -161 -106 -280 -270 -292 -401 -13 -138 79 -341 218 -483 68 -68 111 -95
203 -126 93 -31 109 -31 70 0 -48 37 -93 116 -131 223 -36 106 -40 162 -22
271 16 92 47 155 116 236 32 39 64 84 71 100 9 23 12 199 10 739 l-3 708 -94
39 c-51 21 -91 33 -88 26z"/>
<path d="M2541 2112 c0 -760 3 -1109 10 -1092 6 14 20 63 32 110 18 71 21 113
21 260 0 150 -4 193 -27 304 -36 175 -33 195 9 56 68 -224 82 -332 65 -496
-17 -157 -28 -205 -62 -260 l-31 -49 35 34 c96 92 157 322 157 595 0 106 -47
297 -91 371 -79 133 -90 166 -95 287 -5 127 10 117 21 -15 5 -62 14 -90 41
-140 137 -245 180 -417 163 -642 -9 -107 -42 -282 -61 -318 -5 -10 -7 -21 -5
-24 9 -8 47 105 67 200 60 279 71 445 41 611 -30 165 -62 257 -154 436 -90
175 -103 225 -111 426 -5 116 -5 117 5 34 24 -219 31 -240 144 -465 82 -163
111 -232 130 -308 34 -136 50 -345 35 -473 -10 -90 -64 -331 -90 -399 -15 -40
-5 -42 17 -3 34 64 43 90 63 196 85 438 60 914 -61 1154 -17 35 -61 112 -97
172 -100 168 -105 184 -110 373 l-4 162 -29 10 -29 10 1 -1117z"/>
<path d="M2510 1767 c0 -7 -29 -57 -65 -111 -76 -116 -95 -171 -95 -281 0
-120 63 -286 136 -356 l34 -33 0 397 c0 218 -2 397 -5 397 -3 0 -5 -6 -5 -13z"/>
</g>
</svg>
