<?xml version="1.0" standalone="no"?>
<!DOCTYPE svg PUBLIC "-//W3C//DTD SVG 20010904//EN"
 "http://www.w3.org/TR/2001/REC-SVG-20010904/DTD/svg10.dtd">
<svg version="1.0" xmlns="http://www.w3.org/2000/svg"
 width="64.000000pt" height="64.000000pt" viewBox="0 0 64.000000 64.000000"
 preserveAspectRatio="xMidYMid meet">

<g transform="translate(0.000000,64.000000) scale(0.100000,-0.100000)"
fill="#000000" stroke="none">
<path d="M245 631 c-92 -24 -173 -90 -215 -176 -34 -69 -35 -198 -2 -265 34
-71 75 -114 144 -151 58 -31 70 -34 148 -33 72 0 93 4 136 26 75 40 107 70
145 140 31 58 34 70 34 148 0 78 -3 90 -34 148 -57 104 -144 160 -260 167 -36
2 -79 1 -96 -4z m36 -178 c61 -91 54 -90 116 -18 31 36 62 65 70 65 15 0 1
-20 -77 -110 -16 -19 -30 -39 -30 -44 0 -4 29 -50 65 -101 36 -52 65 -96 65
-99 0 -3 -22 -6 -49 -6 l-50 0 -48 70 -48 70 -40 -47 c-22 -26 -49 -58 -61
-72 -11 -13 -26 -22 -33 -20 -7 3 15 36 54 82 l66 77 -65 94 c-36 52 -66 97
-66 100 0 3 22 6 50 6 47 0 50 -2 81 -47z"/>
<path d="M191 473 c2 -5 51 -78 109 -161 84 -121 110 -152 128 -152 23 0 23 1
7 28 -9 15 -58 86 -109 157 -66 94 -98 131 -115 133 -13 2 -22 0 -20 -5z"/>
</g>
</svg>
